g coin_01
v -1.036653 -0.1958461 0.4353758
v -0.8366 0.2063441 0.3728395
v -1.013396 -0.1957 0.4439132
v -0.8574836 0.2087573 0.3632306
v -1.058386 -0.1954661 0.4175889
v -0.8763672 0.2117478 0.3443371
v -1.07121 -0.1950302 0.3935815
v -0.8869496 0.2137811 0.3200759
v -1.071207 -0.1950256 -0.3936261
v -0.8868765 0.2139265 -0.320319
v -1.058194 -0.1953472 -0.4176731
v -0.8763713 0.2117154 -0.3444635
v -1.037836 -0.1953363 -0.4348065
v -0.8590761 0.2086698 -0.3626028
v -1.012661 -0.1952187 -0.4438566
v -0.8365964 0.2063438 -0.3728786
v 1.012981 -0.1954127 0.4438562
v 0.8366655 0.2064543 0.3728176
v 0.8597972 0.2087602 0.3620641
v 1.038768 -0.195303 0.4343676
v 0.8774306 0.2117764 0.3431348
v 1.059433 -0.1951494 0.4164875
v 0.8869502 0.2137811 0.3200759
v 1.071207 -0.1950258 0.3935756
v 0.8868763 0.2139265 -0.320319
v 1.07121 -0.1950299 -0.393632
v 0.8763587 0.2117116 -0.3444783
v 1.058332 -0.1954602 -0.4176722
v 0.8590382 0.2086096 -0.3626261
v 1.038121 -0.1955547 -0.4348271
v 0.8365278 0.20623 -0.3729011
v 1.013077 -0.1955035 -0.4439132
v -1.013396 -0.1957 0.4439132
v -0.8366 0.2063441 0.3728395
v 0.8366655 0.2064543 0.3728176
v 1.012981 -0.1954127 0.4438562
v -0.8365964 0.2063438 -0.3728786
v -1.012661 -0.1952187 -0.4438566
v 1.013077 -0.1955035 -0.4439132
v 0.8365278 0.20623 -0.3729011
v 1.071207 -0.1950258 0.3935756
v 1.07121 -0.1950299 -0.393632
v 1.069122 -0.2188014 -0.3968502
v 1.058332 -0.1954602 -0.4176722
v 1.069087 -0.2187981 0.3968352
v 1.059433 -0.1951494 0.4164875
v 1.060535 -0.2161306 0.4154661
v 1.038768 -0.195303 0.4343676
v 1.04406 -0.2173564 0.4302375
v 1.012981 -0.1954127 0.4438562
v 1.049552 -0.2318932 0.4189967
v 1.023083 -0.2195739 0.4380873
v -1.013396 -0.1957 0.4439132
v 1.031401 -0.2408617 0.4228586
v -1.023481 -0.2197289 0.438177
v -1.036653 -0.1958461 0.4353758
v 1.056513 -0.2404845 0.3991887
v 1.056653 -0.2404765 -0.3993348
v -1.041311 -0.2176902 0.4314603
v -1.058386 -0.1954661 0.4175889
v -1.057606 -0.2197285 0.4168717
v -1.07121 -0.1950302 0.3935815
v -1.048895 -0.2333926 0.4185726
v -1.031725 -0.2409169 0.4230137
v 1.036252 -0.253853 0.4004027
v -1.066919 -0.2225621 0.397409
v -1.071207 -0.1950256 -0.3936261
v -1.054957 -0.2419554 0.3995544
v -1.066939 -0.2222373 -0.3969723
v -1.058194 -0.1953472 -0.4176731
v -1.036506 -0.253853 0.4006568
v 1.036506 -0.253853 -0.4006957
v -1.054979 -0.2418249 -0.3992945
v -1.036497 -0.253853 -0.4006872
v -1.057377 -0.2188935 -0.4167042
v -1.037836 -0.1953363 -0.4348065
v -1.047256 -0.2324526 -0.4199
v 1.031572 -0.2401003 -0.4233581
v -1.041995 -0.2177756 -0.4308187
v -1.031363 -0.2400399 -0.4233416
v -1.022517 -0.2177437 -0.4385281
v -1.012661 -0.1952187 -0.4438566
v 1.013077 -0.1955035 -0.4439132
v 1.022922 -0.2178993 -0.4385854
v 1.038121 -0.1955547 -0.4348271
v 1.048653 -0.2309982 -0.4201435
v 1.042995 -0.2160703 -0.4311002
v 1.058969 -0.2153487 -0.417113
v -0.8763713 0.2117154 -0.3444635
v -0.8590761 0.2086698 -0.3626028
v -0.8483291 0.2276782 -0.3525434
v -0.8365964 0.2063438 -0.3728786
v -0.8628302 0.2286225 -0.339171
v -0.8868765 0.2139265 -0.320319
v -0.8691914 0.2333488 -0.3173031
v -0.8869496 0.2137811 0.3200759
v -0.8287939 0.2281418 -0.359401
v -0.8447899 0.2395107 -0.338088
v -0.8468829 0.2469383 -0.3154259
v -0.8692462 0.2332553 0.3171093
v 0.8288127 0.2280769 -0.3594401
v 0.8365278 0.20623 -0.3729011
v -0.8238488 0.2447986 -0.3387583
v 0.8484144 0.2274968 -0.3526224
v 0.8590382 0.2086096 -0.3626261
v 0.8239531 0.2447904 -0.3388149
v 0.8627745 0.2284494 -0.3392744
v 0.8763587 0.2117116 -0.3444783
v 0.844792 0.2394018 -0.3381799
v 0.8683854 0.2335963 -0.3173435
v 0.8868763 0.2139265 -0.320319
v 0.8464403 0.246957 -0.3155204
v 0.8216466 0.253853 -0.3146749
v -0.8215655 0.253853 -0.3145855
v 0.8684465 0.2334861 0.317124
v 0.8869502 0.2137811 0.3200759
v 0.8774306 0.2117764 0.3431348
v 0.8465236 0.2469036 0.3154417
v -0.8469145 0.2468998 0.3153175
v 0.8217485 0.253853 0.3147274
v -0.8215655 0.253853 0.314546
v 0.8625688 0.2303747 0.3360499
v -0.8452471 0.240185 0.3363115
v 0.8447212 0.240295 0.3363989
v 0.8481831 0.2289116 0.3506743
v 0.8597972 0.2087602 0.3620641
v 0.8287657 0.2285521 0.3585843
v 0.8366655 0.2064543 0.3728176
v 0.8239705 0.2448036 0.338809
v -0.8238452 0.2447968 0.3387191
v -0.8287013 0.2285101 0.3585701
v -0.8366 0.2063441 0.3728395
v -0.8574836 0.2087573 0.3632306
v -0.8468693 0.2276233 0.3530473
v -0.8616296 0.2302644 0.3377296
v -0.8763672 0.2117478 0.3443371
vt 0.1578369 0.7138672
vt 0.2988281 0.7299805
vt 0.161499 0.7070313
vt 0.2961426 0.7368164
vt 0.1546631 0.722168
vt 0.2941895 0.7446289
vt 0.1530762 0.7304688
vt 0.293457 0.7529297
vt 0.1535645 0.9765625
vt 0.2937012 0.953125
vt 0.1552734 0.9848633
vt 0.2946777 0.9614258
vt 0.1583252 0.9926758
vt 0.2963867 0.9692383
vt 0.1622314 1
vt 0.2993164 0.9765625
vt 0.1379395 0.6958008
vt 0.0008068085 0.71875
vt 0.003749847 0.7260742
vt 0.1419678 0.7036133
vt 0.005458832 0.734375
vt 0.1448975 0.7114258
vt 0.006175995 0.7421875
vt 0.1464844 0.7192383
vt 0.005439758 0.9423828
vt 0.1456299 0.9658203
vt 0.004581451 0.9506836
vt 0.1439209 0.9741211
vt 0.002882004 0.9580078
vt 0.1409912 0.9819336
vt 0 0.965332
vt 0.1369629 0.9892578
vt 0.5625 0.6337891
vt 0.6904297 0.5786133
vt 0.6904297 0.05508423
vt 0.5625 0
vt 0.6967773 0.5786133
vt 0.8242188 0.6337891
vt 0.8242188 0
vt 0.6962891 0.05526733
vt 0.02259827 0.6923828
vt 0.2753906 0.6953125
vt 0.2751465 0.6879883
vt 0.2866211 0.6889648
vt 0.02311707 0.6850586
vt 0.01216888 0.6865234
vt 0.01634216 0.6821289
vt 0.004051208 0.6767578
vt 0.01095581 0.6757813
vt 0 0.6655273
vt 0.01683044 0.6757813
vt 0.007724762 0.6679688
vt 0.006309509 0.0266571
vt 0.01582336 0.6694336
vt 0.01402283 0.02436829
vt 0.01002502 0.01637268
vt 0.02360535 0.6777344
vt 0.2746582 0.6806641
vt 0.01678467 0.01780701
vt 0.0181427 0.006320953
vt 0.02268982 0.01224518
vt 0.02922058 0
vt 0.02349854 0.01707458
vt 0.02207947 0.02301025
vt 0.02386475 0.6704102
vt 0.02960205 0.008575439
vt 0.2819824 0.002267838
vt 0.02996826 0.01557159
vt 0.28125 0.01065063
vt 0.2929688 0.008728027
vt 0.03009033 0.02232361
vt 0.2746582 0.6728516
vt 0.2810059 0.01765442
vt 0.2807617 0.02441406
vt 0.2883301 0.01438141
vt 0.3007813 0.01824951
vt 0.2880859 0.0196991
vt 0.282959 0.6723633
vt 0.2939453 0.01991272
vt 0.2890625 0.02529907
vt 0.2973633 0.02693176
vt 0.3044434 0.02940369
vt 0.2983398 0.668457
vt 0.2912598 0.6708984
vt 0.2944336 0.6796875
vt 0.2819824 0.6787109
vt 0.2878418 0.6782227
vt 0.2824707 0.6845703
vt 0.5429688 0.559082
vt 0.550293 0.5527344
vt 0.5444336 0.5483398
vt 0.5551758 0.5449219
vt 0.5400391 0.5532227
vt 0.5341797 0.5634766
vt 0.5327148 0.5551758
vt 0.3310547 0.5629883
vt 0.5473633 0.5419922
vt 0.5390625 0.5463867
vt 0.53125 0.546875
vt 0.3327637 0.5546875
vt 0.5488281 0.0221405
vt 0.5566406 0.01901245
vt 0.5390625 0.5395508
vt 0.5458984 0.01576233
vt 0.5517578 0.0109787
vt 0.5405273 0.02404785
vt 0.5415039 0.01091003
vt 0.5444336 0.004901886
vt 0.5405273 0.0173645
vt 0.5336914 0.009017944
vt 0.5356445 0.0006651878
vt 0.5327148 0.01696777
vt 0.5322266 0.02493286
vt 0.5307617 0.5390625
vt 0.3339844 0.008430481
vt 0.3322754 0
vt 0.3237305 0.003892899
vt 0.3349609 0.0164032
vt 0.3337402 0.5463867
vt 0.3354492 0.02438354
vt 0.3342285 0.5385742
vt 0.3276367 0.01044464
vt 0.3269043 0.5458984
vt 0.328125 0.01686096
vt 0.3225098 0.01527405
vt 0.3164063 0.0100708
vt 0.3193359 0.02156067
vt 0.3112793 0.01831055
vt 0.3273926 0.02348328
vt 0.3261719 0.5390625
vt 0.3181152 0.5410156
vt 0.3100586 0.5444336
vt 0.3146973 0.5517578
vt 0.3203125 0.546875
vt 0.3256836 0.5517578
vt 0.3220215 0.5585938
vn -0.5126953 0.3476563 0.7851563
vn -0.003286362 0.1893311 0.9819336
vn -0.007080078 0.1375732 0.9902344
vn -0.4775391 0.3671875 0.7983398
vn -0.7265625 0.4001465 0.5585938
vn -0.7070313 0.4294434 0.5615234
vn -0.9267578 0.3747559 0.0161438
vn -0.9052734 0.4248047 0.01324463
vn -0.9267578 0.3752441 -0.01620483
vn -0.9052734 0.4248047 -0.01326752
vn -0.7333984 0.4008789 -0.5488281
vn -0.715332 0.4304199 -0.550293
vn -0.5126953 0.3469238 -0.7851563
vn -0.4750977 0.3652344 -0.8007813
vn -0.007587433 0.1401367 -0.9902344
vn -0.00349617 0.1884766 -0.9819336
vn 0.007865906 0.1379395 0.9902344
vn 0.003656387 0.1894531 0.9819336
vn 0.4814453 0.3691406 0.7949219
vn 0.5180664 0.3493652 0.7807617
vn 0.7197266 0.4326172 0.5429688
vn 0.7363281 0.4060059 0.5415039
vn 0.9047852 0.4255371 0.01192474
vn 0.9233398 0.3833008 0.01467133
vn 0.9047852 0.4255371 -0.01320648
vn 0.9233398 0.3835449 -0.01622009
vn 0.7158203 0.4306641 -0.5498047
vn 0.7319336 0.4055176 -0.5478516
vn 0.4755859 0.3654785 -0.800293
vn 0.5117188 0.348877 -0.7851563
vn 0.00349617 0.1884766 -0.9819336
vn 0.007568359 0.1401367 -0.9902344
vn -0.007080078 0.1375732 0.9902344
vn -0.003286362 0.1893311 0.9819336
vn 0.003656387 0.1894531 0.9819336
vn 0.007865906 0.1379395 0.9902344
vn -0.00349617 0.1884766 -0.9819336
vn -0.007587433 0.1401367 -0.9902344
vn 0.007568359 0.1401367 -0.9902344
vn 0.00349617 0.1884766 -0.9819336
vn 0.9233398 0.3833008 0.01467133
vn 0.9233398 0.3835449 -0.01622009
vn 0.9472656 -0.3203125 -0.01215363
vn 0.7319336 0.4055176 -0.5478516
vn 0.9472656 -0.3203125 0.01102448
vn 0.7363281 0.4060059 0.5415039
vn 0.8071289 -0.1557617 0.5693359
vn 0.5180664 0.3493652 0.7807617
vn 0.4951172 -0.1933594 0.847168
vn 0.007865906 0.1379395 0.9902344
vn 0.5703125 -0.5522461 0.6079102
vn 0.003852844 -0.4575195 0.8891602
vn -0.007080078 0.1375732 0.9902344
vn 0.004283905 -0.7626953 0.6469727
vn -0.003330231 -0.4580078 0.8891602
vn -0.5126953 0.3476563 0.7851563
vn 0.7231445 -0.6904297 0.01196289
vn 0.7231445 -0.690918 -0.01280975
vn -0.5014648 -0.1917725 0.84375
vn -0.7265625 0.4001465 0.5585938
vn -0.7973633 -0.1687012 0.5795898
vn -0.9267578 0.3747559 0.0161438
vn -0.5703125 -0.5576172 0.6035156
vn -0.003736496 -0.7626953 0.6469727
vn 0.00617218 -1 0.01391602
vn -0.9404297 -0.3395996 0.01167297
vn -0.9267578 0.3752441 -0.01620483
vn -0.7109375 -0.703125 0.01148987
vn -0.9404297 -0.3391113 -0.01222992
vn -0.7333984 0.4008789 -0.5488281
vn -0.005523682 -1 0.01393127
vn 0.006153107 -1 -0.01480103
vn -0.7104492 -0.7036133 -0.01275635
vn -0.005485535 -1 -0.01473236
vn -0.7973633 -0.1831055 -0.5751953
vn -0.5126953 0.3469238 -0.7851563
vn -0.5576172 -0.5493164 -0.6220703
vn 0.0041008 -0.7480469 -0.6635742
vn -0.4943848 -0.1982422 -0.8461914
vn -0.003673553 -0.7490234 -0.6625977
vn -0.003479004 -0.4543457 -0.8911133
vn -0.007587433 0.1401367 -0.9902344
vn 0.007568359 0.1401367 -0.9902344
vn 0.003437042 -0.4541016 -0.8911133
vn 0.5117188 0.348877 -0.7851563
vn 0.5722656 -0.5332031 -0.6230469
vn 0.4865723 -0.1925049 -0.8520508
vn 0.8007813 -0.1553955 -0.5786133
vn -0.715332 0.4304199 -0.550293
vn -0.4750977 0.3652344 -0.8007813
vn -0.3493652 0.6625977 -0.6625977
vn -0.00349617 0.1884766 -0.9819336
vn -0.5625 0.706543 -0.4291992
vn -0.9052734 0.4248047 -0.01326752
vn -0.6430664 0.765625 -0.01055145
vn -0.9052734 0.4248047 0.01324463
vn -0.002801895 0.644043 -0.7651367
vn -0.3249512 0.8496094 -0.4155273
vn -0.3996582 0.9165039 -0.01020813
vn -0.6430664 0.765625 0.01023102
vn 0.002826691 0.6445313 -0.7646484
vn 0.00349617 0.1884766 -0.9819336
vn -0.002689362 0.8603516 -0.5097656
vn 0.3500977 0.6616211 -0.6630859
vn 0.4755859 0.3654785 -0.800293
vn 0.002706528 0.8603516 -0.5092773
vn 0.5634766 0.7080078 -0.4260254
vn 0.7158203 0.4306641 -0.5498047
vn 0.3288574 0.8476563 -0.4160156
vn 0.6386719 0.7695313 -0.01035309
vn 0.9047852 0.4255371 -0.01320648
vn 0.4020996 0.9155273 -0.01026154
vn 0.004188538 1 -0.01456451
vn -0.004192352 1 -0.01455688
vn 0.6386719 0.7695313 0.009292603
vn 0.9047852 0.4255371 0.01192474
vn 0.7197266 0.4326172 0.5429688
vn 0.4016113 0.9155273 0.009223938
vn -0.3991699 0.9169922 0.009414673
vn 0.004173279 1 0.01452637
vn -0.004180908 1 0.01454163
vn 0.5615234 0.715332 0.4162598
vn -0.3244629 0.8535156 0.4072266
vn 0.3232422 0.8535156 0.4084473
vn 0.3605957 0.6723633 0.6464844
vn 0.4814453 0.3691406 0.7949219
vn 0.003015518 0.6464844 0.7631836
vn 0.003656387 0.1894531 0.9819336
vn 0.002622604 0.8598633 0.5107422
vn -0.002710342 0.859375 0.5107422
vn -0.002689362 0.6464844 0.7631836
vn -0.003286362 0.1893311 0.9819336
vn -0.4775391 0.3671875 0.7983398
vn -0.3503418 0.6674805 0.6572266
vn -0.5581055 0.7084961 0.432373
vn -0.7070313 0.4294434 0.5615234
g coin_01_0
f 3/3/3 2/2/2 1/1/1
f 2/2/2 4/4/4 1/1/1
f 1/1/1 4/4/4 5/5/5
f 4/4/4 6/6/6 5/5/5
f 5/5/5 6/6/6 7/7/7
f 6/6/6 8/8/8 7/7/7
f 7/7/7 8/8/8 9/9/9
f 8/8/8 10/10/10 9/9/9
f 9/9/9 10/10/10 11/11/11
f 10/10/10 12/12/12 11/11/11
f 13/13/13 11/11/11 12/12/12
f 14/14/14 13/13/13 12/12/12
f 15/15/15 13/13/13 14/14/14
f 16/16/16 15/15/15 14/14/14
f 19/19/19 18/18/18 17/17/17
f 20/20/20 19/19/19 17/17/17
f 21/21/21 19/19/19 20/20/20
f 22/22/22 21/21/21 20/20/20
f 23/23/23 21/21/21 22/22/22
f 24/24/24 23/23/23 22/22/22
f 25/25/25 23/23/23 24/24/24
f 26/26/26 25/25/25 24/24/24
f 27/27/27 25/25/25 26/26/26
f 28/28/28 27/27/27 26/26/26
f 27/27/27 28/28/28 29/29/29
f 28/28/28 30/30/30 29/29/29
f 29/29/29 30/30/30 31/31/31
f 30/30/30 32/32/32 31/31/31
f 35/35/35 34/34/34 33/33/33
f 36/36/36 35/35/35 33/33/33
f 39/39/39 38/38/38 37/37/37
f 40/40/40 39/39/39 37/37/37
f 43/43/43 42/42/42 41/41/41
f 42/42/42 43/43/43 44/44/44
f 45/45/45 43/43/43 41/41/41
f 45/45/45 41/41/41 46/46/46
f 47/47/47 45/45/45 46/46/46
f 47/47/47 46/46/46 48/48/48
f 49/49/49 47/47/47 48/48/48
f 49/49/49 48/48/48 50/50/50
f 45/45/45 47/47/47 51/51/51
f 49/49/49 51/51/51 47/47/47
f 52/52/52 49/49/49 50/50/50
f 52/52/52 50/50/50 53/53/53
f 51/51/51 49/49/49 54/54/54
f 49/49/49 52/52/52 54/54/54
f 55/55/55 52/52/52 53/53/53
f 54/54/54 52/52/52 55/55/55
f 55/55/55 53/53/53 56/56/56
f 57/57/57 45/45/45 51/51/51
f 51/51/51 54/54/54 57/57/57
f 58/58/58 43/43/43 45/45/45
f 57/57/57 58/58/58 45/45/45
f 59/59/59 55/55/55 56/56/56
f 59/59/59 56/56/56 60/60/60
f 61/61/61 59/59/59 60/60/60
f 61/61/61 60/60/60 62/62/62
f 55/55/55 59/59/59 63/63/63
f 59/59/59 61/61/61 63/63/63
f 64/64/64 54/54/54 55/55/55
f 64/64/64 55/55/55 63/63/63
f 54/54/54 65/65/65 57/57/57
f 65/65/65 54/54/54 64/64/64
f 66/66/66 61/61/61 62/62/62
f 62/62/62 67/67/67 66/66/66
f 63/63/63 61/61/61 68/68/68
f 63/63/63 68/68/68 64/64/64
f 61/61/61 66/66/66 68/68/68
f 67/67/67 69/69/69 66/66/66
f 66/66/66 69/69/69 68/68/68
f 69/69/69 67/67/67 70/70/70
f 68/68/68 71/71/71 64/64/64
f 71/71/71 65/65/65 64/64/64
f 65/65/65 72/72/72 57/57/57
f 72/72/72 58/58/58 57/57/57
f 68/68/68 73/73/73 71/71/71
f 69/69/69 73/73/73 68/68/68
f 65/65/65 71/71/71 74/74/74
f 72/72/72 65/65/65 74/74/74
f 73/73/73 74/74/74 71/71/71
f 75/75/75 69/69/69 70/70/70
f 70/70/70 76/76/76 75/75/75
f 77/77/77 73/73/73 69/69/69
f 75/75/75 77/77/77 69/69/69
f 73/73/73 77/77/77 74/74/74
f 78/78/78 72/72/72 74/74/74
f 58/58/58 72/72/72 78/78/78
f 76/76/76 79/79/79 75/75/75
f 79/79/79 77/77/77 75/75/75
f 77/77/77 80/80/80 74/74/74
f 77/77/77 79/79/79 80/80/80
f 80/80/80 78/78/78 74/74/74
f 79/79/79 76/76/76 81/81/81
f 79/79/79 81/81/81 80/80/80
f 76/76/76 82/82/82 81/81/81
f 82/82/82 83/83/83 81/81/81
f 81/81/81 84/84/84 80/80/80
f 83/83/83 84/84/84 81/81/81
f 84/84/84 78/78/78 80/80/80
f 83/83/83 85/85/85 84/84/84
f 86/86/86 58/58/58 78/78/78
f 78/78/78 84/84/84 86/86/86
f 85/85/85 87/87/87 84/84/84
f 84/84/84 87/87/87 86/86/86
f 87/87/87 85/85/85 44/44/44
f 86/86/86 88/88/88 58/58/58
f 87/87/87 88/88/88 86/86/86
f 88/88/88 87/87/87 44/44/44
f 88/88/88 43/43/43 58/58/58
f 43/43/43 88/88/88 44/44/44
f 91/91/91 90/90/90 89/89/89
f 90/90/90 91/91/91 92/92/92
f 93/93/93 91/91/91 89/89/89
f 93/93/93 89/89/89 94/94/94
f 95/95/95 93/93/93 94/94/94
f 95/95/95 94/94/94 96/96/96
f 91/91/91 97/97/97 92/92/92
f 98/98/98 91/91/91 93/93/93
f 97/97/97 91/91/91 98/98/98
f 93/93/93 95/95/95 99/99/99
f 98/98/98 93/93/93 99/99/99
f 100/100/100 95/95/95 96/96/96
f 99/99/99 95/95/95 100/100/100
f 97/97/97 101/101/101 92/92/92
f 101/101/101 102/102/102 92/92/92
f 103/103/103 97/97/97 98/98/98
f 98/98/98 99/99/99 103/103/103
f 101/101/101 104/104/104 102/102/102
f 104/104/104 105/105/105 102/102/102
f 106/106/106 101/101/101 97/97/97
f 103/103/103 106/106/106 97/97/97
f 104/104/104 101/101/101 106/106/106
f 105/105/105 104/104/104 107/107/107
f 108/108/108 105/105/105 107/107/107
f 109/109/109 107/107/107 104/104/104
f 109/109/109 104/104/104 106/106/106
f 107/107/107 110/110/110 108/108/108
f 107/107/107 109/109/109 110/110/110
f 110/110/110 111/111/111 108/108/108
f 112/112/112 109/109/109 106/106/106
f 109/109/109 112/112/112 110/110/110
f 113/113/113 106/106/106 103/103/103
f 113/113/113 112/112/112 106/106/106
f 99/99/99 114/114/114 103/103/103
f 114/114/114 113/113/113 103/103/103
f 111/111/111 110/110/110 115/115/115
f 116/116/116 111/111/111 115/115/115
f 117/117/117 116/116/116 115/115/115
f 110/110/110 112/112/112 118/118/118
f 115/115/115 110/110/110 118/118/118
f 114/114/114 99/99/99 119/119/119
f 119/119/119 99/99/99 100/100/100
f 112/112/112 113/113/113 120/120/120
f 118/118/118 112/112/112 120/120/120
f 113/113/113 114/114/114 121/121/121
f 121/121/121 114/114/114 119/119/119
f 120/120/120 113/113/113 121/121/121
f 122/122/122 117/117/117 115/115/115
f 115/115/115 118/118/118 122/122/122
f 123/123/123 119/119/119 100/100/100
f 119/119/119 123/123/123 121/121/121
f 124/124/124 118/118/118 120/120/120
f 118/118/118 124/124/124 122/122/122
f 122/122/122 125/125/125 117/117/117
f 125/125/125 122/122/122 124/124/124
f 125/125/125 126/126/126 117/117/117
f 126/126/126 125/125/125 127/127/127
f 125/125/125 124/124/124 127/127/127
f 128/128/128 126/126/126 127/127/127
f 129/129/129 124/124/124 120/120/120
f 129/129/129 120/120/120 121/121/121
f 124/124/124 129/129/129 127/127/127
f 130/130/130 129/129/129 121/121/121
f 127/127/127 129/129/129 130/130/130
f 123/123/123 130/130/130 121/121/121
f 128/128/128 127/127/127 131/131/131
f 131/131/131 127/127/127 130/130/130
f 132/132/132 128/128/128 131/131/131
f 133/133/133 132/132/132 131/131/131
f 131/131/131 130/130/130 134/134/134
f 130/130/130 123/123/123 134/134/134
f 134/134/134 133/133/133 131/131/131
f 134/134/134 123/123/123 135/135/135
f 134/134/134 135/135/135 133/133/133
f 135/135/135 123/123/123 100/100/100
f 135/135/135 136/136/136 133/133/133
f 135/135/135 100/100/100 96/96/96
f 136/136/136 135/135/135 96/96/96
