g Environment_03_walls_wall_24
v -18.69825 1.396627 0.0002861023
v -18.69825 -1.396627 0.0002861023
v -8.867939 -1.396627 -16.85567
v -8.867939 1.396627 -16.85567
v -18.04545 -0.9931889 0.0002861023
v -18.04545 1.396627 0.0002861023
v -8.597458 1.396627 -16.20287
v -8.597458 -0.9931889 -16.20287
v -18.04545 1.396627 0.0002861023
v -18.69825 1.396627 0.0002861023
v -8.867939 1.396627 -16.85567
v -8.597458 1.396627 -16.20287
v -8.559227 -1.396627 -16.10986
v -17.95243 -1.396627 0.0002861023
v -17.95243 -0.9931889 0.0002861023
v -8.559227 -0.9931889 -16.10986
v -17.95243 -0.9931889 0.0002861023
v -18.04545 -0.9931889 0.0002861023
v -8.597458 -0.9931889 -16.20287
v -8.559227 -0.9931889 -16.10986
v 18.69825 1.396627 0.0002861023
v 8.867938 1.396627 -16.85567
v 8.867938 -1.396627 -16.85567
v 18.69825 -1.396627 0.0002861023
v -8.867939 1.396627 -16.85567
v -8.867939 -1.396627 -16.85567
v 8.867938 -1.396627 -16.85567
v 8.867938 1.396627 -16.85567
v 18.04602 -0.9931889 0.0002861023
v 8.597458 -0.9931889 -16.20287
v 8.597458 1.396627 -16.20287
v 18.04602 1.396627 0.0002861023
v -8.597458 -0.9931889 -16.20287
v -8.597458 1.396627 -16.20287
v 8.597458 1.396627 -16.20287
v 8.597458 -0.9931889 -16.20287
v 18.04602 1.396627 0.0002861023
v 8.597458 1.396627 -16.20287
v 8.867938 1.396627 -16.85567
v 18.69825 1.396627 0.0002861023
v -8.597458 1.396627 -16.20287
v -8.867939 1.396627 -16.85567
v 8.867938 1.396627 -16.85567
v 8.597458 1.396627 -16.20287
v -8.559227 -1.396627 -16.10986
v -8.559227 -0.9931889 -16.10986
v 8.559225 -0.9931889 -16.10986
v 8.559225 -1.396627 -16.10986
v 8.559225 -1.396627 -16.10986
v 8.559225 -0.9931889 -16.10986
v 17.95243 -0.9931889 0.0002861023
v 17.95243 -1.396627 0.0002861023
v -8.559227 -0.9931889 -16.10986
v -8.597458 -0.9931889 -16.20287
v 8.597458 -0.9931889 -16.20287
v 8.559225 -0.9931889 -16.10986
v 17.95243 -0.9931889 0.0002861023
v 8.559225 -0.9931889 -16.10986
v 8.597458 -0.9931889 -16.20287
v 18.04602 -0.9931889 0.0002861023
v -18.69825 1.396627 0.0002861023
v -8.867939 1.396627 16.85568
v -8.867939 -1.396627 16.85568
v -18.69825 -1.396627 0.0002861023
v -8.867939 -1.396627 16.85568
v -8.867939 1.396627 16.85568
v -0.0002861023 1.396627 16.85568
v -0.0002861023 -1.396627 16.85568
v -18.04545 -0.9931889 0.0002861023
v -8.597458 -0.9931889 16.20287
v -8.597458 1.396627 16.20287
v -18.04545 1.396627 0.0002861023
v -0.0002861023 1.396627 16.20287
v -8.597458 1.396627 16.20287
v -8.597458 -0.9931889 16.20287
v -0.0002861023 -0.9931889 16.20287
v -18.04545 1.396627 0.0002861023
v -8.597458 1.396627 16.20287
v -8.867939 1.396627 16.85568
v -18.69825 1.396627 0.0002861023
v -0.0002861023 1.396627 16.85568
v -8.867939 1.396627 16.85568
v -8.597458 1.396627 16.20287
v -0.0002861023 1.396627 16.20287
v 8.597458 1.396627 16.20287
v 8.867938 1.396627 16.85568
v -8.559227 -1.396627 16.10986
v -0.0002861023 -1.396627 16.10986
v -0.0002861023 -0.9931889 16.10986
v -8.559227 -0.9931889 16.10986
v -8.559227 -1.396627 16.10986
v -8.559227 -0.9931889 16.10986
v -17.95243 -0.9931889 0.0002861023
v -17.95243 -1.396627 0.0002861023
v -8.597458 -0.9931889 16.20287
v -8.559227 -0.9931889 16.10986
v -0.0002861023 -0.9931889 16.10986
v -0.0002861023 -0.9931889 16.20287
v -17.95243 -0.9931889 0.0002861023
v -8.559227 -0.9931889 16.10986
v -8.597458 -0.9931889 16.20287
v -18.04545 -0.9931889 0.0002861023
v 18.69825 1.396627 0.0002861023
v 18.69825 -1.396627 0.0002861023
v 8.867938 -1.396627 16.85568
v 8.867938 1.396627 16.85568
v 8.867938 -1.396627 16.85568
v -0.0002861023 -1.396627 16.85568
v -0.0002861023 1.396627 16.85568
v 8.867938 1.396627 16.85568
v 18.04602 -0.9931889 0.0002861023
v 18.04602 1.396627 0.0002861023
v 8.597458 1.396627 16.20287
v 8.597458 -0.9931889 16.20287
v -0.0002861023 1.396627 16.20287
v -0.0002861023 -0.9931889 16.20287
v 8.597458 -0.9931889 16.20287
v 8.597458 1.396627 16.20287
v 18.04602 1.396627 0.0002861023
v 18.69825 1.396627 0.0002861023
v 8.867938 1.396627 16.85568
v 8.597458 1.396627 16.20287
v 8.559225 -1.396627 16.10986
v 8.559225 -0.9931889 16.10986
v -0.0002861023 -0.9931889 16.10986
v -0.0002861023 -1.396627 16.10986
v 8.559225 -1.396627 16.10986
v 17.95243 -1.396627 0.0002861023
v 17.95243 -0.9931889 0.0002861023
v 8.559225 -0.9931889 16.10986
v 8.597458 -0.9931889 16.20287
v -0.0002861023 -0.9931889 16.20287
v -0.0002861023 -0.9931889 16.10986
v 8.559225 -0.9931889 16.10986
v 17.95243 -0.9931889 0.0002861023
v 18.04602 -0.9931889 0.0002861023
v 8.597458 -0.9931889 16.20287
v 8.559225 -0.9931889 16.10986
vt 0.0153316 0.8080748
vt 0.0153316 0.7696388
vt 0.03070601 0.7696388
vt 0.03070601 0.8080748
vt 0.0143707 0.7696388
vt 0.0143707 0.8080748
vt 0.03166692 0.8080748
vt 0.03166692 0.7696388
vt 0.06337665 0.7907786
vt 0.06337665 0.7907786
vt 0.06914204 0.7907786
vt 0.07010294 0.7907786
vt 0.1287179 0.7859741
vt 0.1171871 0.7859741
vt 0.1171871 0.7907786
vt 0.1287179 0.7907786
vt 0.1537013 0.7907786
vt 0.1537013 0.7907786
vt 0.1604276 0.7792478
vt 0.1604276 0.7792478
vt 0.0153316 0.8080748
vt 0.03070601 0.8080748
vt 0.03070601 0.7696388
vt 0.0153316 0.7696388
vt 0.02301881 0.8080748
vt 0.02301881 0.7696388
vt 0.02301881 0.7696388
vt 0.02301881 0.8080748
vt 0.0143707 0.7696388
vt 0.03166692 0.7696388
vt 0.03166692 0.8080748
vt 0.0143707 0.8080748
vt 0.02301881 0.7696388
vt 0.02301881 0.8080748
vt 0.02301881 0.8080748
vt 0.02301881 0.7696388
vt 0.06337665 0.7907786
vt 0.07010294 0.7907786
vt 0.06914204 0.7907786
vt 0.06337665 0.7907786
vt 0.07010294 0.7907786
vt 0.06914204 0.7907786
vt 0.06914204 0.7907786
vt 0.07010294 0.7907786
vt 0.1287179 0.7859741
vt 0.1287179 0.7907786
vt 0.1287179 0.7907786
vt 0.1287179 0.7859741
vt 0.1287179 0.7859741
vt 0.1287179 0.7907786
vt 0.1171871 0.7907786
vt 0.1171871 0.7859741
vt 0.1604276 0.7792478
vt 0.1604276 0.7792478
vt 0.1604276 0.7792478
vt 0.1604276 0.7792478
vt 0.1537013 0.7907786
vt 0.1604276 0.7792478
vt 0.1604276 0.7792478
vt 0.1537013 0.7907786
vt 0.0153316 0.8080748
vt 0.03070601 0.8080748
vt 0.03070601 0.7696388
vt 0.0153316 0.7696388
vt 0.0191752 0.7696388
vt 0.0191752 0.8080748
vt 0.02686241 0.8080748
vt 0.02686241 0.7696388
vt 0.0143707 0.7696388
vt 0.03166692 0.7696388
vt 0.03166692 0.8080748
vt 0.0143707 0.8080748
vt 0.02782331 0.8080748
vt 0.0182143 0.8080748
vt 0.0182143 0.7696388
vt 0.02782331 0.7696388
vt 0.06337665 0.7907786
vt 0.07010294 0.7907786
vt 0.06914204 0.7907786
vt 0.06337665 0.7907786
vt 0.07394655 0.7907786
vt 0.06914204 0.7907786
vt 0.07010294 0.7907786
vt 0.07394655 0.7907786
vt 0.07010294 0.7907786
vt 0.06914204 0.7907786
vt 0.1287179 0.7859741
vt 0.1344833 0.7859741
vt 0.1344833 0.7907786
vt 0.1287179 0.7907786
vt 0.1287179 0.7859741
vt 0.1287179 0.7907786
vt 0.1171871 0.7907786
vt 0.1171871 0.7859741
vt 0.1604276 0.7792478
vt 0.1604276 0.7792478
vt 0.1652321 0.7792478
vt 0.1652321 0.7792478
vt 0.1537013 0.7907786
vt 0.1604276 0.7792478
vt 0.1604276 0.7792478
vt 0.1537013 0.7907786
vt 0.0153316 0.8080748
vt 0.0153316 0.7696388
vt 0.03070601 0.7696388
vt 0.03070601 0.8080748
vt 0.0191752 0.7696388
vt 0.02686241 0.7696388
vt 0.02686241 0.8080748
vt 0.0191752 0.8080748
vt 0.0143707 0.7696388
vt 0.0143707 0.8080748
vt 0.03166692 0.8080748
vt 0.03166692 0.7696388
vt 0.02782331 0.8080748
vt 0.02782331 0.7696388
vt 0.0182143 0.7696388
vt 0.0182143 0.8080748
vt 0.06337665 0.7907786
vt 0.06337665 0.7907786
vt 0.06914204 0.7907786
vt 0.07010294 0.7907786
vt 0.1287179 0.7859741
vt 0.1287179 0.7907786
vt 0.1344833 0.7907786
vt 0.1344833 0.7859741
vt 0.1287179 0.7859741
vt 0.1171871 0.7859741
vt 0.1171871 0.7907786
vt 0.1287179 0.7907786
vt 0.1604276 0.7792478
vt 0.1652321 0.7792478
vt 0.1652321 0.7792478
vt 0.1604276 0.7792478
vt 0.1537013 0.7907786
vt 0.1537013 0.7907786
vt 0.1604276 0.7792478
vt 0.1604276 0.7792478
vn -0.8611225 -0.001373291 -0.5083956
vn -0.8611225 -0.001373291 -0.5083956
vn -0.8611225 -0.001373291 -0.5083956
vn -0.8611225 -0.001373291 -0.5083956
vn 0.8638691 -0.001373291 0.5037144
vn 0.8638691 -0.001373291 0.5037144
vn 0.8638691 -0.001373291 0.5037144
vn 0.8638691 -0.001373291 0.5037144
vn 0.001373291 0.999999 -0.000345267
vn 0.001373291 0.999999 -0.000345267
vn 0.001373291 0.999999 -0.000345267
vn 0.001373291 0.999999 -0.000345267
vn 0.8638691 -0.001373291 0.5037144
vn 0.8638691 -0.001373291 0.5037144
vn 0.8638691 -0.001373291 0.5037144
vn 0.8638691 -0.001373291 0.5037144
vn 0.001373291 0.999999 -0.000345267
vn 0.001373291 0.999999 -0.000345267
vn 0.001373291 0.999999 -0.000345267
vn 0.001373291 0.999999 -0.000345267
vn 0.8638691 -0.001373291 -0.5037144
vn 0.8638691 -0.001373291 -0.5037144
vn 0.8638691 -0.001373291 -0.5037144
vn 0.8638691 -0.001373291 -0.5037144
vn 0.001373291 -0.001373291 -0.9999981
vn 0.001373291 -0.001373291 -0.9999981
vn 0.001373291 -0.001373291 -0.9999981
vn 0.001373291 -0.001373291 -0.9999981
vn -0.8611225 -0.001373291 0.5083956
vn -0.8611225 -0.001373291 0.5083956
vn -0.8611225 -0.001373291 0.5083956
vn -0.8611225 -0.001373291 0.5083956
vn 0.001373291 -0.001373291 0.9999981
vn 0.001373291 -0.001373291 0.9999981
vn 0.001373291 -0.001373291 0.9999981
vn 0.001373291 -0.001373291 0.9999981
vn 0.001373291 0.999999 -0.000345267
vn 0.001373291 0.999999 -0.000345267
vn 0.001373291 0.999999 -0.000345267
vn 0.001373291 0.999999 -0.000345267
vn 0.001373291 0.999999 -0.000345267
vn 0.001373291 0.999999 -0.000345267
vn 0.001373291 0.999999 -0.000345267
vn 0.001373291 0.999999 -0.000345267
vn 0.001373291 -0.001373291 0.9999981
vn 0.001373291 -0.001373291 0.9999981
vn 0.001373291 -0.001373291 0.9999981
vn 0.001373291 -0.001373291 0.9999981
vn -0.8611225 -0.001373291 0.5083956
vn -0.8611225 -0.001373291 0.5083956
vn -0.8611225 -0.001373291 0.5083956
vn -0.8611225 -0.001373291 0.5083956
vn 0.001373291 0.999999 -0.000345267
vn 0.001373291 0.999999 -0.000345267
vn 0.001373291 0.999999 -0.000345267
vn 0.001373291 0.999999 -0.000345267
vn 0.001373291 0.999999 -0.000345267
vn 0.001373291 0.999999 -0.000345267
vn 0.001373291 0.999999 -0.000345267
vn 0.001373291 0.999999 -0.000345267
vn -0.8611225 -0.001373291 0.5083956
vn -0.8611225 -0.001373291 0.5083956
vn -0.8611225 -0.001373291 0.5083956
vn -0.8611225 -0.001373291 0.5083956
vn 0.001373291 -0.001373291 0.9999981
vn 0.001373291 -0.001373291 0.9999981
vn 0.001373291 -0.001373291 0.9999981
vn 0.001373291 -0.001373291 0.9999981
vn 0.8638691 -0.001373291 -0.5037144
vn 0.8638691 -0.001373291 -0.5037144
vn 0.8638691 -0.001373291 -0.5037144
vn 0.8638691 -0.001373291 -0.5037144
vn 0.001373291 -0.001373291 -0.9999981
vn 0.001373291 -0.001373291 -0.9999981
vn 0.001373291 -0.001373291 -0.9999981
vn 0.001373291 -0.001373291 -0.9999981
vn 0.001373291 0.999999 -0.000345267
vn 0.001373291 0.999999 -0.000345267
vn 0.001373291 0.999999 -0.000345267
vn 0.001373291 0.999999 -0.000345267
vn 0.001373291 0.999999 -0.000345267
vn 0.001373291 0.999999 -0.000345267
vn 0.001373291 0.999999 -0.000345267
vn 0.001373291 0.999999 -0.000345267
vn 0.001373291 0.999999 -0.000345267
vn 0.001373291 0.999999 -0.000345267
vn 0.001373291 -0.001373291 -0.9999981
vn 0.001373291 -0.001373291 -0.9999981
vn 0.001373291 -0.001373291 -0.9999981
vn 0.001373291 -0.001373291 -0.9999981
vn 0.8638691 -0.001373291 -0.5037144
vn 0.8638691 -0.001373291 -0.5037144
vn 0.8638691 -0.001373291 -0.5037144
vn 0.8638691 -0.001373291 -0.5037144
vn 0.001373291 0.999999 -0.000345267
vn 0.001373291 0.999999 -0.000345267
vn 0.001373291 0.999999 -0.000345267
vn 0.001373291 0.999999 -0.000345267
vn 0.001373291 0.999999 -0.000345267
vn 0.001373291 0.999999 -0.000345267
vn 0.001373291 0.999999 -0.000345267
vn 0.001373291 0.999999 -0.000345267
vn 0.8638691 -0.001373291 0.5037144
vn 0.8638691 -0.001373291 0.5037144
vn 0.8638691 -0.001373291 0.5037144
vn 0.8638691 -0.001373291 0.5037144
vn 0.001373291 -0.001373291 0.9999981
vn 0.001373291 -0.001373291 0.9999981
vn 0.001373291 -0.001373291 0.9999981
vn 0.001373291 -0.001373291 0.9999981
vn -0.8611225 -0.001373291 -0.5083956
vn -0.8611225 -0.001373291 -0.5083956
vn -0.8611225 -0.001373291 -0.5083956
vn -0.8611225 -0.001373291 -0.5083956
vn 0.001373291 -0.001373291 -0.9999981
vn 0.001373291 -0.001373291 -0.9999981
vn 0.001373291 -0.001373291 -0.9999981
vn 0.001373291 -0.001373291 -0.9999981
vn 0.001373291 0.999999 -0.000345267
vn 0.001373291 0.999999 -0.000345267
vn 0.001373291 0.999999 -0.000345267
vn 0.001373291 0.999999 -0.000345267
vn 0.001373291 -0.001373291 -0.9999981
vn 0.001373291 -0.001373291 -0.9999981
vn 0.001373291 -0.001373291 -0.9999981
vn 0.001373291 -0.001373291 -0.9999981
vn -0.8611225 -0.001373291 -0.5083956
vn -0.8611225 -0.001373291 -0.5083956
vn -0.8611225 -0.001373291 -0.5083956
vn -0.8611225 -0.001373291 -0.5083956
vn 0.001373291 0.999999 -0.000345267
vn 0.001373291 0.999999 -0.000345267
vn 0.001373291 0.999999 -0.000345267
vn 0.001373291 0.999999 -0.000345267
vn 0.001373291 0.999999 -0.000345267
vn 0.001373291 0.999999 -0.000345267
vn 0.001373291 0.999999 -0.000345267
vn 0.001373291 0.999999 -0.000345267
g Environment_03_walls_wall_24_0
f 3/3/3 2/2/2 1/1/1
f 4/4/4 3/3/3 1/1/1
f 7/7/7 6/6/6 5/5/5
f 8/8/8 7/7/7 5/5/5
f 11/11/11 10/10/10 9/9/9
f 12/12/12 11/11/11 9/9/9
f 15/15/15 14/14/14 13/13/13
f 16/16/16 15/15/15 13/13/13
f 19/19/19 18/18/18 17/17/17
f 20/20/20 19/19/19 17/17/17
f 23/23/23 22/22/22 21/21/21
f 24/24/24 23/23/23 21/21/21
f 27/27/27 26/26/26 25/25/25
f 28/28/28 27/27/27 25/25/25
f 31/31/31 30/30/30 29/29/29
f 32/32/32 31/31/31 29/29/29
f 35/35/35 34/34/34 33/33/33
f 36/36/36 35/35/35 33/33/33
f 39/39/39 38/38/38 37/37/37
f 40/40/40 39/39/39 37/37/37
f 43/43/43 42/42/42 41/41/41
f 44/44/44 43/43/43 41/41/41
f 47/47/47 46/46/46 45/45/45
f 48/48/48 47/47/47 45/45/45
f 51/51/51 50/50/50 49/49/49
f 52/52/52 51/51/51 49/49/49
f 55/55/55 54/54/54 53/53/53
f 56/56/56 55/55/55 53/53/53
f 59/59/59 58/58/58 57/57/57
f 60/60/60 59/59/59 57/57/57
f 63/63/63 62/62/62 61/61/61
f 64/64/64 63/63/63 61/61/61
f 67/67/67 66/66/66 65/65/65
f 68/68/68 67/67/67 65/65/65
f 71/71/71 70/70/70 69/69/69
f 72/72/72 71/71/71 69/69/69
f 75/75/75 74/74/74 73/73/73
f 76/76/76 75/75/75 73/73/73
f 79/79/79 78/78/78 77/77/77
f 80/80/80 79/79/79 77/77/77
f 83/83/83 82/82/82 81/81/81
f 84/84/84 83/83/83 81/81/81
f 85/85/85 84/84/84 81/81/81
f 86/86/86 85/85/85 81/81/81
f 89/89/89 88/88/88 87/87/87
f 90/90/90 89/89/89 87/87/87
f 93/93/93 92/92/92 91/91/91
f 94/94/94 93/93/93 91/91/91
f 97/97/97 96/96/96 95/95/95
f 98/98/98 97/97/97 95/95/95
f 101/101/101 100/100/100 99/99/99
f 102/102/102 101/101/101 99/99/99
f 105/105/105 104/104/104 103/103/103
f 106/106/106 105/105/105 103/103/103
f 109/109/109 108/108/108 107/107/107
f 110/110/110 109/109/109 107/107/107
f 113/113/113 112/112/112 111/111/111
f 114/114/114 113/113/113 111/111/111
f 117/117/117 116/116/116 115/115/115
f 118/118/118 117/117/117 115/115/115
f 121/121/121 120/120/120 119/119/119
f 122/122/122 121/121/121 119/119/119
f 125/125/125 124/124/124 123/123/123
f 126/126/126 125/125/125 123/123/123
f 129/129/129 128/128/128 127/127/127
f 130/130/130 129/129/129 127/127/127
f 133/133/133 132/132/132 131/131/131
f 134/134/134 133/133/133 131/131/131
f 137/137/137 136/136/136 135/135/135
f 138/138/138 137/137/137 135/135/135
