g environment_01:Base
v 37.0779 0.3225872 37.10869
v -37.13951 0.3225872 37.10869
v -37.13951 0.3225872 -37.10869
v 37.13951 0.3225872 -37.10869
v -37.13951 0.3225872 37.10869
v -37.13951 -0.3225872 37.10869
v -37.13951 -0.3225872 -37.10869
v -37.13951 0.3225872 -37.10869
v 37.13951 -0.3225872 -37.10869
v 37.13951 0.3225872 -37.10869
v -37.13951 0.3225872 -37.10869
v -37.13951 -0.3225872 -37.10869
v -37.13951 -0.3225872 37.10869
v -37.13951 0.3225872 37.10869
v 37.0779 0.3225872 37.10869
v 37.0779 -0.3225872 37.10869
v 37.0779 -0.3225872 37.10869
v 37.0779 0.3225872 37.10869
v 37.13951 0.3225872 -37.10869
v 37.13951 -0.3225872 -37.10869
vt 0.2084165 0.8333062
vt 0.1982206 0.8370387
vt 0.1983075 0.8433526
vt 0.2122143 0.8435463
vt 0.2014457 0.832431
vt 0.2014457 0.8471223
vt 0.2161371 0.8471223
vt 0.2161371 0.832431
vt 0.2161371 0.8471223
vt 0.2161371 0.832431
vt 0.2014457 0.832431
vt 0.2014457 0.8471223
vt 0.2161371 0.8471223
vt 0.2161371 0.832431
vt 0.2014457 0.832431
vt 0.2014457 0.8471223
vt 0.2161371 0.8471223
vt 0.2161371 0.832431
vt 0.2014457 0.832431
vt 0.2014457 0.8471223
vn 0 1 0
vn 0 1 0
vn 0 1 0
vn 0 1 0
vn -1 0 0
vn -1 0 0
vn -1 0 0
vn -1 0 0
vn 0 0 -1
vn 0 0 -1
vn 0 0 -1
vn 0 0 -1
vn 0 0 1
vn 0 0 1
vn 0 0 1
vn 0 0 1
vn 1 0 0
vn 1 0 0
vn 1 0 0
vn 1 0 0
g environment_01:Base_0
f 3/3/3 2/2/2 1/1/1
f 4/4/4 3/3/3 1/1/1
f 7/7/7 6/6/6 5/5/5
f 8/8/8 7/7/7 5/5/5
f 11/11/11 10/10/10 9/9/9
f 12/12/12 11/11/11 9/9/9
f 15/15/15 14/14/14 13/13/13
f 16/16/16 15/15/15 13/13/13
f 19/19/19 18/18/18 17/17/17
f 20/20/20 19/19/19 17/17/17
